PathFileType  4	(X/Y/Z) C:\Users\antoi\Documents\MyRepositories\mobilecap\ResultsAnalysis
DataRate	CameraRate	NumFrames	NumMarkers	Units	OrigDataRate	OrigDataStartFrame	OrigNumFrames
100.0	100.0	4	51	mm	100.0	36	143
Frame#	Time	r_knee			r_shank_antsup			r_ankle			r_calc			r_5meta			r_toe			L_knee			L_shank_antsup			L_ankle			L_calc			L_5meta			L_toe			r_sh2			r_sh3			r_sh4			L_sh2			L_sh3			r_thigh1			r_thigh2			r_thigh3			r_thigh4			r_thigh5			L_thigh1			L_thigh2			L_thigh3			L_thigh4			r.ASIS			r.PSIS			L.ASIS			L.PSIS			C7			R_Shoulder			L_Shoulder			R_Sternum			L_Sternum			R_humerus			R_elbow_med			R_elbow_lat			R_forearm			R_wrist_radius			R_wrist_ulna			L_humerus			L_elbow_med			L_elbow_lat			L_forearm			L_wrist_radius			L_wrist_ulna			R_HJC			L_HJC			R_HJC_reg			L_HJC_reg			
		X1	Y1	Z1	X2	Y2	Z2	X3	Y3	Z3	X4	Y4	Z4	X5	Y5	Z5	X6	Y6	Z6	X7	Y7	Z7	X8	Y8	Z8	X9	Y9	Z9	X10	Y10	Z10	X11	Y11	Z11	X12	Y12	Z12	X13	Y13	Z13	X14	Y14	Z14	X15	Y15	Z15	X16	Y16	Z16	X17	Y17	Z17	X18	Y18	Z18	X19	Y19	Z19	X20	Y20	Z20	X21	Y21	Z21	X22	Y22	Z22	X23	Y23	Z23	X24	Y24	Z24	X25	Y25	Z25	X26	Y26	Z26	X27	Y27	Z27	X28	Y28	Z28	X29	Y29	Z29	X30	Y30	Z30	X31	Y31	Z31	X32	Y32	Z32	X33	Y33	Z33	X34	Y34	Z34	X35	Y35	Z35	X36	Y36	Z36	X37	Y37	Z37	X38	Y38	Z38	X39	Y39	Z39	X40	Y40	Z40	X41	Y41	Z41	X42	Y42	Z42	X43	Y43	Z43	X44	Y44	Z44	X45	Y45	Z45	X46	Y46	Z46	X47	Y47	Z47	X48	Y48	Z48	X49	Y49	Z49	X50	Y50	Z50	X51	Y51	Z51	

36	0.35000000	301.16165	491.06737	-65.90834	331.35597	419.44360	-89.02277	228.43157	93.88681	-113.95636	155.17012	67.26851	-147.07919	331.05338	41.62402	-83.77655	378.04854	67.28718	-143.53019	489.11691	533.56938	-341.90283	486.49797	436.70750	-347.22188	291.90905	194.91471	-314.56717	218.80207	193.92885	-261.15903	351.74423	83.00737	-351.66474	404.44606	90.38479	-305.54819	301.42484	307.54058	-75.09683	258.72323	436.94103	-50.71474	227.37472	329.64836	-56.82770	412.05120	486.88019	-340.55426	352.41975	380.12262	-343.56429	384.45391	804.85289	-16.80343	376.02863	692.11937	-34.06951	317.20098	671.14057	-2.85459	270.72658	808.17705	12.19901	263.09684	693.20463	-10.25256	304.01075	731.77135	-334.02162	379.16710	611.52148	-323.44303	401.63858	784.00797	-377.23021	471.34440	666.67231	-362.28941	397.18132	976.92526	-48.94032	200.82405	1014.60251	-121.21889	391.54393	962.43916	-298.90026	189.60553	1014.60075	-221.61517	193.23676	1422.64422	-184.58238	312.12501	1394.63815	-18.33776	252.09828	1383.48255	-371.00007	335.62194	1392.22779	-180.49042	332.64852	1392.80825	-223.68885	343.55873	1260.14936	41.33071	301.86583	1044.88523	12.04343	331.82477	1062.02909	74.72083	429.26636	959.65776	74.71578	493.37496	839.71882	68.28391	472.64912	826.79521	95.43760	258.85991	1264.85856	-426.48366	216.17375	1037.48054	-347.61839	223.14875	1052.51913	-424.98796	288.72277	954.84703	-435.50455	318.31695	798.12263	-443.18672	293.37295	797.46607	-463.28971	317.46788	897.14747	-67.28333	310.21790	890.35555	-273.50857	330.08759	896.96876	-76.22715	311.73256	896.96750	-240.50582	
37	0.36000000	304.54011	490.87751	-66.13205	333.99104	418.96562	-89.25007	228.62486	94.08916	-114.10558	155.18305	67.39504	-147.22463	331.06467	41.64030	-83.72405	378.11390	67.15369	-143.57029	504.09634	535.08622	-341.21506	505.28642	437.40458	-347.00780	323.52269	185.41660	-314.92747	250.32626	180.26499	-261.89431	389.78300	77.01715	-351.61649	441.70198	87.64347	-305.35062	303.18658	307.27328	-75.26693	261.42455	437.08028	-50.97448	229.27533	330.01546	-57.05661	428.20727	483.59244	-341.21734	374.63203	373.65723	-344.24911	392.28466	803.55256	-17.29648	381.52424	691.15987	-33.80383	322.91392	670.75227	-3.37970	278.04155	808.40153	11.99209	269.23586	693.42696	-10.77120	316.94494	732.26308	-336.18635	393.15730	612.70580	-325.49016	415.56493	785.87914	-377.12869	485.62431	668.79823	-361.54819	406.10693	975.93772	-48.40184	210.90173	1014.53413	-122.15005	402.65734	962.54179	-298.50249	200.29057	1014.91263	-222.56530	204.02486	1422.58793	-184.50865	322.75700	1394.60135	-18.27518	262.37384	1383.47346	-370.74716	346.21025	1392.19674	-180.35185	343.21065	1392.74577	-223.60305	354.78981	1260.16237	41.24456	314.06973	1044.68476	11.90949	343.88824	1062.11927	74.82785	443.26791	960.73212	72.61927	509.31746	841.97244	64.40494	488.87737	828.35124	91.52100	266.96876	1264.83701	-426.21747	221.53923	1038.39081	-346.00470	227.59415	1053.14553	-423.67612	291.19554	954.17041	-435.29308	316.51512	796.67230	-443.05994	291.49133	796.77248	-462.92985	326.50068	896.47051	-67.74299	320.93779	890.57655	-274.04721	339.28211	896.44056	-76.38106	321.90970	897.06171	-240.79406	
38	0.37000000	308.10876	490.65410	-66.36644	336.73989	418.53100	-89.42898	228.85281	94.30816	-114.26643	155.20577	67.52393	-147.39868	331.09343	41.65512	-83.66657	378.22037	67.04102	-143.61097	518.33348	536.03501	-340.66432	523.69897	437.75300	-346.85456	355.74298	175.92925	-315.29700	282.82276	166.46064	-262.51682	428.30102	71.43325	-351.68764	479.29510	85.24629	-305.33173	305.04305	307.00607	-75.42957	264.28404	437.18292	-51.20774	231.30112	330.37362	-57.25832	444.00347	479.64248	-342.04676	397.02892	366.70680	-345.08182	400.11427	802.17319	-17.76702	386.87064	690.25266	-33.14740	328.87267	670.28612	-3.93216	285.66627	808.45160	11.73359	275.56071	693.56020	-11.25884	329.66360	732.38532	-337.95625	407.00899	613.48948	-327.48218	429.06486	787.26294	-376.92555	499.40552	670.35989	-360.73500	415.06957	974.75220	-47.97023	221.02268	1014.26746	-123.09867	413.73649	962.32250	-298.22844	210.99947	1014.95919	-223.54119	214.85087	1422.28824	-184.47797	333.44382	1394.27205	-18.25286	272.74730	1383.24006	-370.54659	356.77515	1391.87019	-180.21814	353.87673	1392.39302	-223.55421	366.03034	1259.88595	41.10371	326.28459	1044.19544	11.76028	356.07851	1061.87688	74.78511	457.25971	961.57512	70.50346	525.18635	843.99704	60.49446	505.06414	829.71072	87.58069	275.25138	1264.62800	-425.97665	227.13128	1039.09139	-344.52404	232.28267	1053.67372	-422.32708	293.85779	953.41005	-435.04211	314.84804	795.20161	-442.90902	289.77239	796.18506	-462.65465	335.58354	895.59710	-68.24504	331.62216	890.50219	-274.60932	348.48418	895.72464	-76.58036	332.06315	896.85889	-241.14461	
39	0.38000000	311.81336	490.38910	-66.59062	339.58858	418.08592	-89.56932	229.09919	94.54969	-114.43902	155.24442	67.66322	-147.58056	331.14440	41.66168	-83.60442	378.34223	66.94187	-143.62653	531.82718	536.37165	-340.19213	541.68091	437.83439	-346.70319	388.57169	166.61674	-315.74733	316.28303	152.77480	-263.12205	467.23599	66.37205	-351.88870	517.16105	83.29320	-305.48066	306.97878	306.74256	-75.56339	267.27020	437.26189	-51.41366	233.41986	330.73372	-57.43476	459.45365	475.10603	-342.92794	419.55658	359.44523	-346.04662	407.95014	800.70884	-18.17801	392.19592	689.36657	-32.24659	335.04518	669.74871	-4.48297	293.56105	808.35900	11.45297	282.05185	693.62021	-11.70363	342.20317	732.15125	-339.42443	420.53143	613.82256	-329.29585	442.07537	788.10347	-376.66918	512.63362	671.29617	-359.86029	424.18731	973.41857	-47.66621	231.20505	1013.81075	-124.08138	424.77788	961.79655	-298.07989	221.74127	1014.73088	-224.55697	225.72115	1421.75374	-184.49172	344.19345	1393.65226	-18.27469	283.23748	1382.78110	-370.41453	367.33708	1391.24972	-180.10509	364.65164	1391.76192	-223.55174	377.26436	1259.32898	40.91271	338.51058	1043.44352	11.56431	368.47045	1061.27316	74.41072	471.25097	962.18058	68.36457	540.97452	845.78969	56.55712	521.19419	830.87451	83.62804	283.74690	1264.22029	-425.77687	232.93907	1039.59890	-343.18345	237.23524	1054.08390	-420.97879	296.70094	952.55905	-434.74678	313.36390	793.71087	-442.75295	288.26874	795.66160	-462.42076	344.79261	894.56710	-68.78753	342.30174	890.13170	-275.19378	357.76856	894.86009	-76.82453	342.25394	896.36891	-241.54454	
